LG_Walk_Slower03																		
version=1																		
nRows=45																		
nColumns=19																		
inDegrees=yes																		
endheader																		
time	ground_force2_vx	ground_force2_vy	ground_force2_vz	ground_force2_px	ground_force2_py	ground_force2_pz	ground_torque2_x	ground_torque2_y	ground_torque2_z	ground_force1_vx	ground_force1_vy	ground_force1_vz	ground_force1_px	ground_force1_py	ground_force1_pz	ground_torque1_x	ground_torque1_y	ground_torque1_z
7.117	0	0	0	0.2	0	-0.3	0	0	0	46.385155	706.028992	79.448067	-0.118176	0	0.357373	-1.00E-05	-0.117654	-5.00E-06
7.118	0	0	0	0.2	0	-0.3	0	0	0	45.99229	706.028992	79.448067	-0.118352	0	0.357809	-2.00E-06	-0.129857	-5.00E-06
7.119	0	0	0	0.2	0	-0.3	0	0	0	45.438671	706.183594	79.134628	-0.118352	0	0.358945	-1.00E-05	-0.255574	-3.00E-06
7.12	0	0	0	0.2	0	-0.3	0	0	0	44.888664	706.183594	79.448715	-0.118073	0	0.358945	-1.80E-05	-0.255574	-3.00E-06
7.121	0	0	0	0.2	0	-0.3	0	0	0	44.888664	704.827026	78.900238	-0.118073	0	0.358945	-1.80E-05	-0.221248	-7.00E-06
7.122	0	0	0	0.2	0	-0.3	0	0	0	45.825043	703.959229	79.292534	-0.118286	0	0.359263	-1.60E-05	-0.221056	-7.00E-06
7.123	0	0	0	0.2	0	-0.3	0	0	0	45.825043	702.086792	78.901001	-0.11829	0	0.35941	0	-0.22045	-4.00E-06
7.124	0	0	0	0.2	0	-0.3	0	0	0	45.503536	701.57959	78.901001	-0.11829	0	0.359672	0.00E+00	-0.174521	-4.00E-06
7.125	0	0	0	0.2	0	-0.3	0	0	0	45.109955	699.498169	77.804367	-0.118215	0	0.361065	5.00E-06	-0.181146	-5.00E-06
7.126	0	0	0	0.2	0	-0.3	0	0	0	45.105625	696.402771	77.413124	-0.118215	0	0.361065	-4.00E-06	-0.174521	-5.00E-06
7.127	0	0	0	0.2	0	-0.3	0	0	0	44.710594	696.402771	77.334633	-0.118342	0	0.361065	-5.00E-06	-0.162327	-6.00E-06
7.128	0	0	0	0.2	0	-0.3	0	0	0	44.710594	698.487122	77.021545	-0.118454	0	0.361473	-1.50E-05	-0.075693	-6.00E-06
7.129	0	0	0	0.2	0	-0.3	0	0	0	44.710594	698.487122	76.159912	-0.118503	0	0.36181	-1.50E-05	-0.162327	-6.00E-06
7.13	0	0	0	0.2	0	-0.3	0	0	0	44.550564	695.548645	76.159912	-0.118503	0	0.362164	-2.00E-05	-0.179066	-5.00E-06
7.131	0	0	0	0.2	0	-0.3	0	0	0	44.550564	695.380127	76.159996	-0.118503	0	0.362617	-2.00E-05	-0.179066	-3.00E-06
7.132	0	0	0	0.2	0	-0.3	0	0	0	44.470547	691.783936	76.159996	-0.118595	0	0.362164	-2.50E-05	-0.171462	-3.00E-06
7.133	0	0	0	0.2	0	-0.3	0	0	0	44.154095	691.783936	75.690216	-0.118545	0	0.362617	-2.00E-05	-0.133067	-5.00E-06
7.134	0	0	0	0.2	0	-0.3	0	0	0	43.921986	693.144409	75.61232	-0.11859	0	0.362833	-2.00E-05	-0.171115	-5.00E-06
7.135	0	0	0	0.2	0	-0.3	0	0	0	43.524792	693.144409	75.377296	-0.118548	0	0.363525	-1.30E-05	-0.171115	-5.00E-06
7.136	0	0	0	0.2	0	-0.3	0	0	0	42.428383	688.180176	75.377296	-0.118557	0	0.363525	-1.30E-05	-0.234743	-7.00E-06
7.137	0	0	0	0.2	0	-0.3	0	0	0	42.428383	688.167786	74.829384	-0.118548	0	0.363305	-1.00E-06	-0.261227	-7.00E-06
7.138	0	0	0	0.2	0	-0.3	0	0	0	42.970455	687.14209	74.672356	-0.118365	0	0.363305	-1.40E-05	-0.234743	-4.00E-06
7.139	0	0	0	0.2	0	-0.3	0	0	0	42.970455	687.14209	74.51638	-0.118354	0	0.364235	-1.40E-05	-0.077372	-4.00E-06
7.14	0	0	0	0.2	0	-0.3	0	0	0	42.969734	687.14209	74.438095	-0.118354	0	0.36445	-1.40E-05	-0.077372	-7.00E-06
7.141	0	0	0	0.2	0	-0.3	0	0	0	42.023975	684.046265	74.438095	-0.118381	0	0.364235	-2.00E-05	-0.326193	-7.00E-06
7.142	0	0	0	0.2	0	-0.3	0	0	0	41.868275	683.024902	74.046799	-0.118381	0	0.36483	-1.40E-05	-0.326193	-1.00E-06
7.143	0	0	0	0.2	0	-0.3	0	0	0	41.868275	679.920593	73.655228	-0.118378	0	0.365273	-2.00E-05	-0.207871	0
7.144	0	0	0	0.2	0	-0.3	0	0	0	41.868275	679.905823	73.890259	-0.117986	0	0.366056	-2.10E-05	-0.207871	0
7.145	0	0	0	0.2	0	-0.3	0	0	0	41.316101	678.027039	73.655228	-0.117986	0	0.366056	-2.10E-05	-0.269551	0
7.146	0	0	0	0.2	0	-0.3	0	0	0	40.531818	677.870361	73.576981	-0.118203	0	0.365939	-1.90E-05	-0.269551	-2.00E-06
7.147	0	0	0	0.2	0	-0.3	0	0	0	39.984699	676.489868	73.263779	-0.118203	0	0.365901	-6.00E-06	-0.311833	-2.00E-06
7.148	0	0	0	0.2	0	-0.3	0	0	0	39.043991	676.489868	72.8722	-0.118203	0	0.365901	-6.00E-06	-0.293938	-2.00E-06
7.149	0	0	0	0.2	0	-0.3	0	0	0	39.043991	675.798584	73.263779	-0.118204	0	0.366746	-6.00E-06	-0.293938	-4.00E-06
7.15	0	0	0	0.2	0	-0.3	0	0	0	39.043991	675.798584	73.420639	-0.11834	0	0.366746	-1.30E-05	-0.261625	-4.00E-06
7.151	0	0	0	0.2	0	-0.3	0	0	0	38.574722	672.373047	73.420921	-0.11834	0	0.366692	-1.30E-05	-0.261625	-2.00E-06
7.152	0	0	0	0.2	0	-0.3	0	0	0	38.261154	671.169922	74.126053	-0.118203	0	0.366393	-1.60E-05	-0.279657	-1.00E-06
7.153	0	0	0	0.2	0	-0.3	0	0	0	37.869011	671.335022	74.126053	-0.118203	0	0.366692	-1.80E-05	-0.344548	-1.00E-06
7.154	0	0	0	0.2	0	-0.3	0	0	0	37.400463	671.335022	74.125938	-0.118229	0	0.366878	-1.80E-05	-0.355913	-4.00E-06
7.155	0	0	0	0.2	0	-0.3	0	0	0	36.539772	671.335022	74.125938	-0.118229	0	0.366878	-1.30E-05	-0.43873	-4.00E-06
7.156	0	0	0	0.2	0	-0.3	0	0	0	35.759819	666.172119	74.125977	-0.118229	0	0.366868	-1.00E-05	-0.43873	-1.00E-06
7.157	0	0	0	0.2	0	-0.3	0	0	0	35.058437	666.172119	74.282677	-0.118094	0	0.3666	-1.30E-05	-0.430542	-1.00E-06
7.158	0	0	0	0.2	0	-0.3	0	0	0	35.058437	666.702942	74.361008	-0.118101	0	0.3666	-1.20E-05	-0.430542	0.00E+00
7.159	0	0	0	0.2	0	-0.3	0	0	0	35.058437	666.702942	74.361008	-0.118094	0	0.367544	-1.20E-05	-0.438973	-3.00E-06
7.16	0	0	0	0.2	0	-0.3	0	0	0	33.88274	665.13147	74.361008	-0.117876	0	0.367544	-1.20E-05	-0.474018	-3.00E-06
7.161	0	0	0	0.2	0	-0.3	0	0	0	33.174862	661.53302	74.361412	-0.117686	0	0.367786	-1.30E-05	-0.541676	-3.00E-06
